<?xml version="1.0" standalone="no"?>
<!DOCTYPE svg PUBLIC "-//W3C//DTD SVG 20010904//EN"
 "http://www.w3.org/TR/2001/REC-SVG-20010904/DTD/svg10.dtd">
<svg version="1.0" xmlns="http://www.w3.org/2000/svg"
 width="16.000000pt" height="16.000000pt" viewBox="0 0 16.000000 16.000000"
 preserveAspectRatio="xMidYMid meet">
<metadata>
Created by potrace 1.11, written by Peter Selinger 2001-2013
</metadata>
<g transform="translate(0.000000,16.000000) scale(0.002286,-0.002286)"
fill="#000000" stroke="none">
<path d="M538 6981 c-11 -15 -13 -278 -13 -1397 l0 -1379 2275 -3 2275 -2 0
697 0 698 -685 2 c-648 3 -686 4 -700 21 -13 16 -15 108 -15 700 l0 682 -1562
0 c-1514 0 -1562 -1 -1575 -19z"/>
<path d="M3850 6388 l0 -613 610 0 c336 0 610 1 610 3 0 2 -274 277 -610 613
l-610 610 0 -613z"/>
<path d="M2130 3662 c-70 -6 -164 -33 -220 -63 -119 -63 -172 -145 -173 -266
0 -126 57 -207 181 -260 42 -18 51 -20 213 -61 63 -16 124 -34 135 -40 35 -18
57 -51 56 -83 -2 -64 -57 -90 -192 -91 -52 0 -107 5 -122 11 -16 6 -28 9 -28
6 0 -11 -127 48 -171 79 -78 57 -79 55 -79 -89 l0 -124 68 -21 c123 -39 201
-49 337 -46 138 4 162 7 228 33 94 37 178 109 209 180 25 57 30 146 11 205
-40 123 -148 183 -413 234 -19 3 -59 15 -88 26 -44 17 -57 27 -69 56 -13 32
-13 37 5 61 31 42 69 55 168 58 119 3 229 -30 325 -98 39 -27 45 -11 44 115
l-1 108 -39 13 c-127 42 -285 66 -385 57z"/>
<path d="M1059 3640 c-20 -5 -22 -11 -21 -88 1 -45 3 -86 6 -90 2 -4 53 -7
113 -7 59 1 110 -2 113 -6 8 -11 3 -484 -5 -526 -3 -19 -12 -44 -18 -55 -36
-58 -148 -82 -257 -54 -93 24 -88 29 -88 -84 -1 -55 2 -100 6 -101 4 0 18 -3
32 -5 63 -12 294 -13 338 -3 111 27 198 98 233 187 22 55 23 70 24 445 2 347
0 387 -14 388 -80 4 -445 3 -462 -1z"/>
<path d="M529 2098 c-1 -2 -2 -153 -3 -336 -1 -294 1 -335 15 -348 14 -12 315
-14 2259 -14 1991 0 2246 1 2259 15 13 13 15 65 16 350 l0 335 -2272 0 c-1250
0 -2274 -1 -2274 -2z"/>
</g>
</svg>
